<?xml version="1.0" encoding="utf-8"?>
<!-- Generator: Adobe Illustrator 24.0.1, SVG Export Plug-In . SVG Version: 6.00 Build 0)  -->
<svg version="1.1" id="Layer_1" xmlns="http://www.w3.org/2000/svg" xmlns:xlink="http://www.w3.org/1999/xlink" x="0px" y="0px"
	 viewBox="0 0 288.02 291.92" style="enable-background:new 0 0 288.02 291.92;" xml:space="preserve">
<path d="M275.33,86.24c-2.38,7.42-7.66,9.84-15.18,9.83C192.22,95.94,124.3,96,56.38,96c-0.99,0-1.98,0-3.49,0
	c1.01,1.08,1.61,1.76,2.25,2.4c12.06,12.07,24.14,24.13,36.2,36.21c4.61,4.63,5.57,10.16,2.72,15.19
	c-3.49,6.15-11.67,7.94-17.35,3.74c-1.1-0.81-2.09-1.78-3.06-2.74c-18.93-18.91-37.85-37.83-56.77-56.76
	c-6.77-6.77-6.78-13.28-0.01-20.05c19.1-19.1,38.2-38.21,57.31-57.3c4.77-4.76,10.01-5.8,15.12-3.07
	c6.59,3.52,8.38,11.98,3.75,17.84c-0.74,0.94-1.59,1.8-2.44,2.64c-11.76,11.77-23.52,23.54-35.29,35.3
	c-0.66,0.66-1.43,1.21-2.14,1.82c0.08,0.26,0.16,0.52,0.24,0.77c1.04,0,2.07,0,3.11,0c68.18,0,136.36,0.01,204.54-0.01
	c4.26,0,8.31,0.6,11.13,4.13c1.3,1.63,2.1,3.66,3.12,5.51C275.33,83.15,275.33,84.7,275.33,86.24z"/>
<path d="M201.21,275.64c-1.93-1.05-4.1-1.83-5.76-3.21c-4.7-3.94-5.28-11.15-1.43-16c1.27-1.6,2.78-3.03,4.24-4.48
	c11.21-11.23,22.43-22.45,33.65-33.68c0.64-0.64,1.25-1.33,2.32-2.48c-1.64,0-2.71,0-3.77,0c-68.1,0-136.21,0-204.31,0.01
	c-3.3,0-6.55-0.22-9.29-2.32c-3.95-3.02-5.75-7.05-4.75-11.97c1.01-4.98,4.13-8.21,9.14-9.34c1.57-0.36,3.23-0.38,4.85-0.38
	c68.19-0.02,136.38-0.01,204.57-0.01c1.01,0,2.01,0,3.54,0c-0.93-1.02-1.51-1.7-2.14-2.33c-12.13-12.14-24.28-24.24-36.38-36.4
	c-5.83-5.85-5.54-14,0.54-18.64c4.24-3.23,10.11-3.28,14.34-0.05c1.09,0.83,2.08,1.79,3.05,2.76
	c18.45,18.43,36.86,36.89,55.34,55.29c2.69,2.68,5.22,5.41,6.36,9.13c0,1.54,0,3.09,0,4.63c-1.26,3.76-3.89,6.51-6.63,9.24
	c-17.91,17.84-35.78,35.71-53.61,53.61c-2.73,2.74-5.48,5.36-9.24,6.63C204.3,275.64,202.76,275.64,201.21,275.64z"/>
</svg>
